<svg width="0" height="0" class="hidden">
  <symbol xmlns="http://www.w3.org/2000/svg" fill="none" viewBox="0 0 24 24" id="facebook">
    <path d="m17.543 13.398.661-4.31h-4.136V6.29c0-1.18.578-2.329 2.43-2.329h1.88V.291S16.673 0 15.042 0c-3.407 0-5.633 2.064-5.633 5.802v3.285H5.622v4.311h3.786v10.42a15.015 15.015 0 0 0 4.66 0v-10.42h3.475Z" fill="currentColor"></path>
  </symbol>
  <symbol xmlns="http://www.w3.org/2000/svg" fill="none" viewBox="0 0 24 24" id="reddit">
    <path d="M24 11.903a2.637 2.637 0 0 0-2.636-2.636c-.717 0-1.35.274-1.814.738-1.793-1.286-4.281-2.13-7.023-2.235l1.202-5.631 3.902.822a1.88 1.88 0 0 0 3.754-.084A1.881 1.881 0 0 0 19.508 1c-.738 0-1.37.422-1.666 1.054l-4.366-.927a.525.525 0 0 0-.358.063.513.513 0 0 0-.211.295L11.578 7.77c-2.805.084-5.314.907-7.128 2.235a2.66 2.66 0 0 0-1.814-.738A2.637 2.637 0 0 0 0 11.903c0 1.076.633 1.983 1.56 2.405a4.934 4.934 0 0 0-.063.801c0 4.05 4.703 7.318 10.524 7.318 5.82 0 10.524-3.269 10.524-7.318 0-.274-.021-.527-.064-.78A2.728 2.728 0 0 0 24 11.903ZM5.968 13.78c0-1.033.844-1.877 1.877-1.877 1.034 0 1.877.844 1.877 1.877a1.881 1.881 0 0 1-1.877 1.877 1.881 1.881 0 0 1-1.877-1.877Zm10.482 4.956c-1.287 1.287-3.733 1.371-4.45 1.371-.717 0-3.185-.105-4.45-1.37a.497.497 0 0 1 0-.697c.19-.19.506-.19.696 0 .801.802 2.53 1.097 3.775 1.097 1.244 0 2.953-.295 3.775-1.097.19-.19.506-.19.696 0 .148.211.148.507-.042.696Zm-.337-3.079a1.881 1.881 0 0 1-1.877-1.877c0-1.033.843-1.877 1.877-1.877 1.033 0 1.877.844 1.877 1.877a1.881 1.881 0 0 1-1.877 1.877Z" fill="currentColor"></path>
  </symbol>
  <symbol xmlns="http://www.w3.org/2000/svg" fill="none" viewBox="0 0 24 24" id="twitter">
    <path d="M7.548 21.501c9.056 0 14.01-7.503 14.01-14.01 0-.213 0-.425-.015-.636A10.02 10.02 0 0 0 24 4.305a9.815 9.815 0 0 1-2.828.775 4.94 4.94 0 0 0 2.165-2.723 9.865 9.865 0 0 1-3.127 1.195 4.929 4.929 0 0 0-8.391 4.491A13.98 13.98 0 0 1 1.67 2.898a4.928 4.928 0 0 0 1.525 6.573A4.88 4.88 0 0 1 .96 8.855v.063a4.926 4.926 0 0 0 3.95 4.826 4.914 4.914 0 0 1-2.223.085 4.93 4.93 0 0 0 4.6 3.42A9.88 9.88 0 0 1 0 19.288a13.941 13.941 0 0 0 7.548 2.208" fill="currentColor"></path>
  </symbol>
</svg>